<svg width="48" height="49" viewBox="0 0 48 49" fill="none" xmlns="http://www.w3.org/2000/svg">
<rect width="48" height="49" fill="white"/>
<path d="M6.13164 41.1084H6.1707L9.0418 37.9541H10.3504L7.24981 41.3135L10.6385 45H9.20781L6.1707 41.6943H6.13164V45H5.03789V37.9541H6.13164V41.1084ZM13.3068 45.0977C11.8371 45.0977 10.8703 44.0869 10.8703 42.4316C10.8703 40.7812 11.8469 39.7705 13.3068 39.7705C14.7717 39.7705 15.7434 40.7812 15.7434 42.4316C15.7434 44.0869 14.7766 45.0977 13.3068 45.0977ZM13.3068 44.2285C14.1369 44.2285 14.6691 43.5742 14.6691 42.4316C14.6691 41.2939 14.132 40.6396 13.3068 40.6396C12.4865 40.6396 11.9445 41.2939 11.9445 42.4316C11.9445 43.5742 12.4816 44.2285 13.3068 44.2285ZM19.4225 39.7803C20.7311 39.7803 21.5855 40.8057 21.5855 42.4316C21.5855 44.0576 20.7359 45.0879 19.442 45.0879C18.7047 45.0879 18.1188 44.7266 17.8258 44.1553H17.8014V46.6992H16.7467V39.8633H17.7672V40.7471H17.7867C18.0895 40.1562 18.6803 39.7803 19.4225 39.7803ZM19.1441 44.1943C19.9791 44.1943 20.5016 43.5107 20.5016 42.4316C20.5016 41.3574 19.9791 40.6689 19.1441 40.6689C18.3385 40.6689 17.7965 41.3721 17.7965 42.4316C17.7965 43.501 18.3385 44.1943 19.1441 44.1943ZM24.4395 45.0977C23.2725 45.0977 22.3984 44.5557 22.3057 43.5742H23.3408C23.4434 44.0234 23.834 44.2627 24.4297 44.2627C25.1084 44.2627 25.4893 43.9502 25.4893 43.5059C25.4893 43.0029 25.1377 42.7686 24.4297 42.7686H23.6875V42.0117H24.4248C25.0645 42.0117 25.3623 41.7627 25.3623 41.3037C25.3623 40.9033 25.084 40.6104 24.4688 40.6104C23.8926 40.6104 23.5215 40.8594 23.4531 41.2646H22.4473C22.5547 40.3564 23.2822 39.7705 24.4883 39.7705C25.6943 39.7705 26.3926 40.3271 26.3926 41.1914C26.3926 41.7334 26.041 42.1826 25.4844 42.3096V42.3486C26.1826 42.4951 26.5342 42.9199 26.5342 43.501C26.5342 44.4482 25.7139 45.0977 24.4395 45.0977ZM28.602 45H27.5619V39.8633H28.6068V43.457H28.6459L31.0141 39.8633H32.0541V45H31.0043V41.3916H30.9652L28.602 45ZM36.6561 45V42.7637H34.3416V45H33.2869V39.8633H34.3416V41.9336H36.6561V39.8633H37.7107V45H36.6561ZM40.4572 45.0879C39.4562 45.0879 38.7482 44.4629 38.7482 43.54C38.7482 42.6416 39.4367 42.0898 40.6574 42.0215L42.0637 41.9385V41.543C42.0637 40.9717 41.6779 40.6299 41.0334 40.6299C40.423 40.6299 40.0422 40.9229 39.9494 41.3818H38.9533C39.0119 40.4541 39.8029 39.7705 41.0725 39.7705C42.3176 39.7705 43.1135 40.4297 43.1135 41.46V45H42.1027V44.1553H42.0783C41.7805 44.7266 41.1311 45.0879 40.4572 45.0879ZM40.7502 44.2529C41.4875 44.2529 42.0637 43.7451 42.0637 43.0762V42.6709L40.799 42.749C40.1691 42.793 39.8127 43.0713 39.8127 43.5107C39.8127 43.96 40.1887 44.2529 40.7502 44.2529Z" fill="#A5A9B2"/>
<path d="M20.81 9L17.19 12.63" stroke="#A5A9B2" stroke-width="2" stroke-miterlimit="10" stroke-linecap="round" stroke-linejoin="round"/>
<path d="M27.19 9L30.81 12.63" stroke="#A5A9B2" stroke-width="2" stroke-miterlimit="10" stroke-linecap="round" stroke-linejoin="round"/>
<path d="M14 14.85C14 13 14.99 12.85 16.22 12.85H31.78C33.01 12.85 34 13 34 14.85C34 17 33.01 16.85 31.78 16.85H16.22C14.99 16.85 14 17 14 14.85Z" stroke="#A5A9B2" stroke-width="2"/>
<path d="M21.76 21V24.55" stroke="#A5A9B2" stroke-width="2" stroke-linecap="round"/>
<path d="M26.36 21V24.55" stroke="#A5A9B2" stroke-width="2" stroke-linecap="round"/>
<path d="M15.5 17L16.91 25.64C17.23 27.58 18 29 20.86 29H26.89C30 29 30.46 27.64 30.82 25.76L32.5 17" stroke="#A5A9B2" stroke-width="2" stroke-linecap="round"/>
</svg>
